<svg width="70" height="62" viewBox="0 0 70 62" fill="none" xmlns="http://www.w3.org/2000/svg">
<path d="M21.6875 11.5118C24.7815 9.72542 28.5935 9.72542 31.6875 11.5118L44.7996 19.082C47.8936 20.8683 49.7996 24.1696 49.7996 27.7423V42.8827C49.7996 46.4554 47.8936 49.7567 44.7996 51.543L31.6875 59.1133C28.5935 60.8996 24.7815 60.8996 21.6875 59.1133L8.57545 51.543C5.48144 49.7567 3.57545 46.4554 3.57545 42.8827V27.7423C3.57545 24.1696 5.48144 20.8683 8.57545 19.082L21.6875 11.5118Z" fill="url(#paint0_linear)"/>
<path d="M61 1L27.9584 0.999998C23.7472 0.999998 20.3334 4.41383 20.3334 8.625C20.3334 12.8362 23.7472 16.25 27.9584 16.25L31.7709 16.25L61 16.25C65.2112 16.25 68.625 12.8362 68.625 8.625C68.625 4.41383 65.2112 1 61 1Z" stroke="#161251" stroke-width="1.8" stroke-linecap="round"/>
<path d="M45.9883 36.2125C46.4854 36.2125 46.8883 35.8095 46.8883 35.3125C46.8883 34.8154 46.4854 34.4125 45.9883 34.4125L45.9883 36.2125ZM52.9779 34.4125C52.4808 34.4125 52.0779 34.8154 52.0779 35.3125C52.0779 35.8095 52.4808 36.2125 52.9779 36.2125L52.9779 34.4125ZM41.9375 23.5041L62.2709 23.5041L62.2709 21.7041L41.9375 21.7041L41.9375 23.5041ZM45.9883 34.4125L41.9375 34.4125L41.9375 36.2125L45.9883 36.2125L45.9883 34.4125ZM62.2709 34.4125L52.9779 34.4125L52.9779 36.2125L62.2709 36.2125L62.2709 34.4125ZM36.4834 28.9583C36.4834 25.946 38.9253 23.5041 41.9375 23.5041L41.9375 21.7041C37.9312 21.7041 34.6834 24.9519 34.6834 28.9583L36.4834 28.9583ZM34.6834 28.9583C34.6834 32.9647 37.9312 36.2125 41.9375 36.2125L41.9375 34.4125C38.9253 34.4125 36.4834 31.9705 36.4834 28.9583L34.6834 28.9583ZM67.725 28.9583C67.725 31.9705 65.2831 34.4125 62.2709 34.4125L62.2709 36.2125C66.2772 36.2125 69.525 32.9647 69.525 28.9583L67.725 28.9583ZM69.525 28.9583C69.525 24.9519 66.2772 21.7041 62.2709 21.7041L62.2709 23.5041C65.2831 23.5041 67.725 25.946 67.725 28.9583L69.525 28.9583Z" fill="#161251" fill-opacity="0.98"/>
<defs>
<linearGradient id="paint0_linear" x1="53.375" y1="62" x2="-10.8022" y2="15.9562" gradientUnits="userSpaceOnUse">
<stop stop-color="#0087FC" stop-opacity="0.48"/>
<stop offset="1" stop-color="#0087FC" stop-opacity="0.2"/>
</linearGradient>
</defs>
</svg>
