<svg width="59" height="58" viewBox="0 0 59 58" fill="none" xmlns="http://www.w3.org/2000/svg">
<path d="M23.64 57.5986C36.696 57.5986 47.28 47.0966 47.28 34.1416C47.28 21.1866 36.696 10.6846 23.64 10.6846C10.584 10.6846 0 21.1866 0 34.1416C0 47.0966 10.584 57.5986 23.64 57.5986Z" fill="url(#paint0_linear)"/>
<path d="M19 40.7558L19 4.33533" stroke="#161251" stroke-width="1.9048" stroke-linecap="round"/>
<path d="M19 4.33536C25.2888 -0.858218 33.6863 0.960038 39.7162 3.4413C45.5518 5.85225 51.073 8.12256 56.585 3.5719C56.8532 3.35089 57.2046 3.32076 57.5098 3.48149C57.8058 3.64222 58 3.97372 58 4.33536V23.3216C58 24.2257 57.6301 25.0896 56.9827 25.6622C55.6324 26.8476 53.0152 28.6257 49.6581 28.4147C46.0882 28.4147 42.5646 26.9581 39.1058 25.5316C34.3984 23.5928 29.9037 21.7344 25.4553 23.4723" stroke="#161251" stroke-width="1.9048" stroke-linecap="round"/>
<defs>
<linearGradient id="paint0_linear" x1="50.436" y1="53.221" x2="-6.10308" y2="12.3407" gradientUnits="userSpaceOnUse">
<stop stop-color="#0087FC" stop-opacity="0.48"/>
<stop offset="1" stop-color="#0087FC" stop-opacity="0.2"/>
</linearGradient>
</defs>
</svg>
