<svg width="60" height="60" viewBox="0 0 60 60" fill="none" xmlns="http://www.w3.org/2000/svg">
<path d="M17.4398 19.8146C19.3266 18.6958 21.6734 18.6958 23.5602 19.8146L33.5817 25.7568C35.4041 26.8374 36.5215 28.7991 36.5215 30.9178V43.0822C36.5215 45.2009 35.4041 47.1626 33.5817 48.2432L23.5602 54.1854C21.6734 55.3042 19.3266 55.3042 17.4398 54.1854L7.41833 48.2432C5.59593 47.1626 4.47853 45.2009 4.47853 43.0822V30.9178C4.47853 28.7991 5.59593 26.8374 7.41833 25.7568L17.4398 19.8146Z" fill="url(#paint0_linear)"/>
<path d="M44.6838 13L21.3921 13C18.4236 13 16.0171 15.4065 16.0171 18.375C16.0171 21.3435 18.4236 23.75 21.3921 23.75L24.0796 23.75L44.6838 23.75C47.6523 23.75 50.0588 21.3435 50.0588 18.375C50.0588 15.4065 47.6523 13 44.6838 13Z" stroke="#161251" stroke-width="1.8" stroke-linecap="round"/>
<path d="M34.1017 38.0875C34.5988 38.0875 35.0017 37.6845 35.0017 37.1875C35.0017 36.6904 34.5988 36.2875 34.1017 36.2875L34.1017 38.0875ZM39.0288 36.2875C38.5318 36.2875 38.1288 36.6904 38.1288 37.1875C38.1288 37.6845 38.5318 38.0875 39.0288 38.0875L39.0288 36.2875ZM31.2463 29.1291L45.5796 29.1291L45.5796 27.3291L31.2463 27.3291L31.2463 29.1291ZM34.1017 36.2875L31.2463 36.2875L31.2463 38.0875L34.1017 38.0875L34.1017 36.2875ZM45.5796 36.2875L39.0288 36.2875L39.0288 38.0875L45.5796 38.0875L45.5796 36.2875ZM27.6671 32.7083C27.6671 30.7316 29.2696 29.1291 31.2463 29.1291L31.2463 27.3291C28.2754 27.3291 25.8671 29.7375 25.8671 32.7083L27.6671 32.7083ZM25.8671 32.7083C25.8671 35.6791 28.2754 38.0875 31.2463 38.0875L31.2463 36.2875C29.2696 36.2875 27.6671 34.685 27.6671 32.7083L25.8671 32.7083ZM49.1588 32.7083C49.1588 34.685 47.5563 36.2875 45.5796 36.2875L45.5796 38.0875C48.5504 38.0875 50.9588 35.6791 50.9588 32.7083L49.1588 32.7083ZM50.9588 32.7083C50.9588 29.7375 48.5504 27.3291 45.5796 27.3291L45.5796 29.1291C47.5563 29.1291 49.1588 30.7316 49.1588 32.7083L50.9588 32.7083Z" fill="#161251" fill-opacity="0.98"/>
<defs>
<linearGradient id="paint0_linear" x1="39" y1="56" x2="-6.28752" y2="24.3636" gradientUnits="userSpaceOnUse">
<stop stop-color="#0087FC" stop-opacity="0.48"/>
<stop offset="1" stop-color="#0087FC" stop-opacity="0.2"/>
</linearGradient>
</defs>
</svg>
