<svg width="60" height="60" viewBox="0 0 60 60" fill="none" xmlns="http://www.w3.org/2000/svg">
<circle cx="22.5" cy="36.5" r="16.5" fill="url(#paint0_linear)"/>
<path d="M25.184 9.74246C24.7252 9.93366 24.5083 10.4606 24.6995 10.9194C24.8907 11.3782 25.4176 11.5952 25.8764 11.404L25.184 9.74246ZM22.261 15.2011C22.4268 14.7325 22.1814 14.2182 21.7129 14.0524C21.2443 13.8865 20.73 14.1319 20.5641 14.6005L22.261 15.2011ZM34.9235 17.3125C34.9235 20.8427 32.0196 23.7251 28.4118 23.7251V25.5251C32.9907 25.5251 36.7235 21.8596 36.7235 17.3125H34.9235ZM28.4118 23.7251C24.8039 23.7251 21.9 20.8427 21.9 17.3125H20.1C20.1 21.8596 23.8328 25.5251 28.4118 25.5251V23.7251ZM28.4118 10.9C32.0196 10.9 34.9235 13.7824 34.9235 17.3125H36.7235C36.7235 12.7655 32.9907 9.1 28.4118 9.1V10.9ZM25.8764 11.404C26.6543 11.0798 27.5104 10.9 28.4118 10.9V9.1C27.269 9.1 26.1778 9.32835 25.184 9.74246L25.8764 11.404ZM21.9 17.3125C21.9 16.5713 22.0273 15.8612 22.261 15.2011L20.5641 14.6005C20.2633 15.4506 20.1 16.3636 20.1 17.3125H21.9ZM48.1 19.7501C48.1 21.934 46.3022 23.7251 44.0588 23.7251V25.5251C47.2733 25.5251 49.9 22.9509 49.9 19.7501H48.1ZM44.0588 23.7251C41.8155 23.7251 40.0177 21.934 40.0177 19.7501H38.2177C38.2177 22.9509 40.8443 25.5251 44.0588 25.5251V23.7251ZM40.0177 19.7501C40.0177 17.5661 41.8155 15.775 44.0588 15.775V13.975C40.8443 13.975 38.2177 16.5492 38.2177 19.7501H40.0177ZM44.0588 15.775C46.3022 15.775 48.1 17.5661 48.1 19.7501H49.9C49.9 16.5492 47.2733 13.975 44.0588 13.975V15.775ZM40.6883 31.125C40.6883 33.3089 38.8905 35.1 36.6472 35.1V36.9C39.8617 36.9 42.4883 34.3258 42.4883 31.125H40.6883ZM36.6472 35.1C34.4038 35.1 32.606 33.3089 32.606 31.125H30.806C30.806 34.3258 33.4326 36.9 36.6472 36.9V35.1ZM32.606 31.125C32.606 28.941 34.4038 27.15 36.6472 27.15V25.3499C33.4326 25.3499 30.806 27.9241 30.806 31.125H32.606ZM36.6472 27.15C38.8905 27.15 40.6883 28.941 40.6883 31.125H42.4883C42.4883 27.9241 39.8617 25.3499 36.6472 25.3499V27.15Z" fill="#161251"/>
<defs>
<linearGradient id="paint0_linear" x1="39" y1="53" x2="-0.678674" y2="24.5326" gradientUnits="userSpaceOnUse">
<stop stop-color="#0087FC" stop-opacity="0.48"/>
<stop offset="1" stop-color="#0087FC" stop-opacity="0.2"/>
</linearGradient>
</defs>
</svg>
