<svg width="78" height="72" viewBox="0 0 78 72" fill="none" xmlns="http://www.w3.org/2000/svg">
<path d="M42.5754 14.8492C45.3881 14.8715 47.9823 16.3693 49.408 18.794L53.5081 25.7668L57.4967 32.804C58.8837 35.251 58.8837 38.2466 57.4967 40.6936L53.5081 47.7308L49.408 54.7036C47.9823 57.1283 45.3881 58.6261 42.5754 58.6484L34.4867 58.7127L26.398 58.6484C23.5854 58.6261 20.9911 57.1283 19.5654 54.7036L15.4654 47.7308L11.4767 40.6936C10.0898 38.2466 10.0898 35.251 11.4767 32.804L15.4654 25.7668L19.5654 18.794C20.9911 16.3693 23.5854 14.8715 26.398 14.8492L34.4867 14.7849L42.5754 14.8492Z" fill="url(#paint0_linear)"/>
<path d="M45.1621 28.1964L50.0633 32.6289C50.8144 33.3082 51.9549 33.3188 52.7185 32.6535L64.19 22.6592L75.3607 12.927C76.2431 12.1582 76.2797 10.7993 75.44 9.98403L67.5796 2.35257C66.8036 1.59918 65.5692 1.59918 64.7932 2.35257L52.8188 13.9781C52.0248 14.749 50.7557 14.7285 49.9869 13.9324L39.0139 2.56887C38.2626 1.79081 37.0288 1.75102 36.2289 2.47906L28.1385 9.84284C27.265 10.638 27.2672 12.013 28.1433 12.8053L32.7262 16.9499" stroke="#161251" stroke-width="2" stroke-linecap="round"/>
<defs>
<linearGradient id="paint0_linear" x1="43.7274" y1="71.2353" x2="12.9288" y2="3.15892" gradientUnits="userSpaceOnUse">
<stop stop-color="#0087FC" stop-opacity="0.48"/>
<stop offset="1" stop-color="#0087FC" stop-opacity="0.2"/>
</linearGradient>
</defs>
</svg>
