<svg width="61" height="59" viewBox="0 0 61 59" fill="none" xmlns="http://www.w3.org/2000/svg">
<path d="M44.3478 14.4073C44.3478 34.6839 26.6087 46.9565 22.1739 46.9565C17.7391 46.9565 0 34.6839 0 14.4073C0 2.61944 15.5217 0 22.1739 0C28.8261 0 44.3478 2.61944 44.3478 14.4073Z" fill="url(#paint0_linear)"/>
<path d="M13.0435 21.2254C13.0435 15.9965 15.6628 12.3913 19.2583 9.94662C21.7361 8.26188 24.6776 7.12836 27.5447 6.39452C30.9384 5.52593 34.228 5.21729 36.5217 5.21729C43.5652 5.21729 60 8.12777 60 21.2254C60 43.7549 41.2174 57.3912 36.5217 57.3912C33.8126 57.3912 26.4142 52.852 20.6394 44.6846C19.84 43.5541 19.0717 42.354 18.3513 41.0868" stroke="#161251" stroke-width="2" stroke-linecap="round"/>
<path d="M48.2609 26.2649C48.2609 37.5297 38.8695 44.3478 36.5217 44.3478C35.1671 44.3478 31.468 42.0782 28.5805 37.9945C28.1809 37.4293 27.7967 36.8292 27.4365 36.1956C26.9732 35.3807 26.5495 34.5103 26.1832 33.587C25.3256 31.4254 24.7826 28.9737 24.7826 26.2649C24.7826 23.6505 26.0923 21.8478 27.89 20.6255C29.1289 19.7832 30.5996 19.2164 32.0332 18.8495C33.7301 18.4152 35.3749 18.2609 36.5217 18.2609C40.0435 18.2609 48.2609 19.7161 48.2609 26.2649Z" stroke="#161251" stroke-width="1.8"/>
<defs>
<linearGradient id="paint0_linear" x1="44.3478" y1="46.9565" x2="-11.0073" y2="9.44845" gradientUnits="userSpaceOnUse">
<stop stop-color="#0087FC" stop-opacity="0.48"/>
<stop offset="1" stop-color="#0087FC" stop-opacity="0.2"/>
</linearGradient>
</defs>
</svg>
