<svg width="60" height="63" viewBox="0 0 60 63" fill="none" xmlns="http://www.w3.org/2000/svg">
<rect y="20.6667" width="39.3333" height="41.5185" rx="10" fill="url(#paint0_linear)"/>
<path d="M22.4469 15.031H17.2964C16.1918 15.031 15.2964 15.9264 15.2964 17.031V28.6727C15.2964 29.7773 16.1918 30.6727 17.2964 30.6727H27.5974C28.702 30.6727 29.5974 31.5682 29.5974 32.6727V42.7037C29.5974 43.8083 30.4929 44.7037 31.5974 44.7037H42.699C43.8036 44.7037 44.699 43.8083 44.699 42.7037V32.6727C44.699 31.5682 45.5945 30.6727 46.699 30.6727H57.0001C58.1047 30.6727 59.0001 29.7773 59.0001 28.6727V17.031C59.0001 15.9264 58.1047 15.031 57.0001 15.031H46.699C45.5945 15.031 44.699 14.1355 44.699 13.031V3C44.699 1.89543 43.8036 1 42.699 1H31.5974C30.4929 1 29.5974 1.89543 29.5974 3V6.9229" stroke="#161251" stroke-width="2" stroke-linecap="round"/>
<defs>
<linearGradient id="paint0_linear" x1="39.3333" y1="62.1852" x2="-9.66707" y2="28.8802" gradientUnits="userSpaceOnUse">
<stop stop-color="#0087FC" stop-opacity="0.48"/>
<stop offset="1" stop-color="#0087FC" stop-opacity="0.2"/>
</linearGradient>
</defs>
</svg>
