<svg width="60" height="60" viewBox="0 0 60 60" fill="none" xmlns="http://www.w3.org/2000/svg">
<path d="M24.5 52C33.6127 52 41 44.6127 41 35.5C41 26.3873 33.6127 19 24.5 19C15.3873 19 8 26.3873 8 35.5C8 44.6127 15.3873 52 24.5 52Z" fill="url(#paint0_linear)"/>
<path d="M21.4638 39.8344L21.4638 14.3352" stroke="#161251" stroke-width="1.8" stroke-linecap="round"/>
<path d="M21.4638 14.3352C25.8668 10.699 31.7461 11.972 35.9679 13.7092C40.0536 15.3972 43.9192 16.9867 47.7783 13.8007C47.9661 13.6459 48.2122 13.6248 48.4258 13.7374C48.633 13.8499 48.769 14.082 48.769 14.3352V27.6281C48.769 28.2611 48.51 28.866 48.0568 29.2668C47.1114 30.0968 45.279 31.3417 42.9285 31.194C40.4292 31.194 37.9622 30.1741 35.5405 29.1754C32.2447 27.818 29.0978 26.5168 25.9834 27.7336" stroke="#161251" stroke-width="1.8" stroke-linecap="round"/>
<defs>
<linearGradient id="paint0_linear" x1="43.2028" y1="48.9207" x2="3.5302" y2="20.4577" gradientUnits="userSpaceOnUse">
<stop stop-color="#0087FC" stop-opacity="0.48"/>
<stop offset="1" stop-color="#0087FC" stop-opacity="0.2"/>
</linearGradient>
</defs>
</svg>
