<svg width="52" height="26" viewBox="0 0 52 26" fill="none" xmlns="http://www.w3.org/2000/svg">
<g clip-path="url(#clip0)">
<path d="M0.35083 0.349548L5.26157 23.5651L5.63495 23.372C10.858 20.6287 16.0731 20.7925 19.5236 21.4142C23.2787 22.0863 25.8216 23.4262 25.8523 23.4355L25.9883 23.5126L26.1286 23.4454C32.2932 20.7038 37.3842 20.8618 40.5686 21.4751C44.0173 22.1434 46.041 23.477 46.062 23.4923L46.4501 23.7495L46.5501 23.2897L51.5869 0.349548H0.35083Z" fill="#C41230"/>
<path d="M35.9159 5.57935V7.33663H36.8302L36.3775 8.65161H36.7901L37.7897 7.44353H37.7899V5.57935H35.9159ZM18.4204 6.64931C15.6917 6.64931 14.0616 8.17351 14.0616 10.7227C14.0616 13.2728 15.6278 14.8002 18.584 14.8002C21.2723 14.8002 22.5003 13.7785 22.7917 12.0316H20.3885C20.2547 12.7073 19.6253 12.9403 18.8023 12.9403C17.8399 12.9403 17.2334 12.2758 17.2334 11.1907H22.7419C22.7655 11.0645 22.778 10.8974 22.778 10.7227C22.778 8.51294 21.331 6.64931 18.4204 6.64931ZM41.9652 6.67317C39.5415 6.67317 37.99 7.64742 37.99 9.30999C37.99 12.4169 42.5976 11.3639 42.5976 12.463C42.5976 12.8783 42.2621 13.095 41.6084 13.095C40.868 13.095 40.3417 12.7578 40.3417 12.0905H37.9248V12.135C37.9248 13.5438 38.9073 14.7073 41.5521 14.7073C44.5364 14.7073 45.678 13.5234 45.6785 12.0006C45.6785 8.83882 40.8602 10.0275 40.8602 8.81563C40.8602 8.56658 41.1709 8.28395 41.9705 8.28395C42.7562 8.28395 43.2177 8.6523 43.2177 9.02079H45.4305C45.4305 7.74357 44.1219 6.67317 41.9652 6.67317ZM32.2388 6.82476V14.5341H35.1249V6.82476H32.2388ZM21.98 6.83974L25.767 14.5506H28.1397L31.8056 6.83974H29.4214L27.3876 11.292H27.3348L25.3028 6.83974H21.98ZM6.67651 6.90651V14.5377H13.9227V12.5892H9.5614V6.90651H6.67651ZM18.4428 8.29944C19.2641 8.29944 19.5417 8.97438 19.5417 9.82034H17.3391C17.3391 9.06302 17.6266 8.29944 18.4428 8.29944Z" fill="white"/>
</g>
<defs>
<clipPath id="clip0">
<rect width="52" height="26" fill="white"/>
</clipPath>
</defs>
</svg>
